<svg xmlns="http://www.w3.org/2000/svg" xmlns:xlink="http://www.w3.org/1999/xlink" width="133.579mm" height="79.578mm" viewBox="4030.7 3022 525.9 313.3"><title></title><style type="text/css">
*[layerid="1"] {stroke:#FF0000;fill:#FF0000;}
*[layerid="2"] {stroke:#0000FF;fill:#0000FF;}
*[layerid="3"] {stroke:#FFCC00;fill:#FFCC00;}
*[layerid="4"] {stroke:#66CC33;fill:#66CC33;}
*[layerid="5"] {stroke:#808080;fill:#808080;}
*[layerid="6"] {stroke:#800000;fill:#800000;}
*[layerid="7"] {stroke:#800080;fill:#800080;stroke-opacity:0.7;fill-opacity:0.7;}
*[layerid="8"] {stroke:#AA00FF;fill:#AA00FF;stroke-opacity:0.7;fill-opacity:0.7;}
*[layerid="9"] {stroke:#6464FF;fill:#6464FF;}
*[layerid="10"] {stroke:#FF00FF;fill:#FF00FF;}
*[layerid="11"] {stroke:#C0C0C0;fill:#C0C0C0;}
*[layerid="12"] {stroke:#FFFFFF;fill:#FFFFFF;}
*[layerid="13"] {stroke:#33CC99;fill:#33CC99;}
*[layerid="14"] {stroke:#5555FF;fill:#5555FF;}
*[layerid="15"] {stroke:#F022F0;fill:#F022F0;}
*[layerid="19"] {stroke:#66CCFF;fill:#66CCFF;}
*[layerid="21"] {stroke:#999966;fill:#999966;}
*[layerid="22"] {stroke:#008000;fill:#008000;}
*[layerid="23"] {stroke:#00FF00;fill:#00FF00;}
*[layerid="24"] {stroke:#BC8E00;fill:#BC8E00;}
*[layerid="25"] {stroke:#70DBFA;fill:#70DBFA;}
*[layerid="26"] {stroke:#00CC66;fill:#00CC66;}
*[layerid="27"] {stroke:#9966FF;fill:#9966FF;}
*[layerid="28"] {stroke:#800080;fill:#800080;}
*[layerid="29"] {stroke:#008080;fill:#008080;}
*[layerid="30"] {stroke:#15935F;fill:#15935F;}
*[layerid="31"] {stroke:#000080;fill:#000080;}
*[layerid="32"] {stroke:#00B400;fill:#00B400;}
*[layerid="33"] {stroke:#2E4756;fill:#2E4756;}
*[layerid="34"] {stroke:#99842F;fill:#99842F;}
*[layerid="35"] {stroke:#FFFFAA;fill:#FFFFAA;}
*[layerid="36"] {stroke:#99842F;fill:#99842F;}
*[layerid="37"] {stroke:#2E4756;fill:#2E4756;}
*[layerid="38"] {stroke:#3535FF;fill:#3535FF;}
*[layerid="39"] {stroke:#8000BC;fill:#8000BC;}
*[layerid="40"] {stroke:#43AE5F;fill:#43AE5F;}
*[layerid="41"] {stroke:#C3ECCE;fill:#C3ECCE;}
*[layerid="42"] {stroke:#728978;fill:#728978;}
*[layerid="43"] {stroke:#39503F;fill:#39503F;}
*[layerid="44"] {stroke:#0C715D;fill:#0C715D;}
*[layerid="45"] {stroke:#5A8A80;fill:#5A8A80;}
*[layerid="46"] {stroke:#2B937E;fill:#2B937E;}
*[layerid="47"] {stroke:#23999D;fill:#23999D;}
*[layerid="48"] {stroke:#45B4E3;fill:#45B4E3;}
*[layerid="49"] {stroke:#215DA1;fill:#215DA1;}
*[layerid="50"] {stroke:#4564D7;fill:#4564D7;}
*[layerid="51"] {stroke:#6969E9;fill:#6969E9;}
*[layerid="52"] {stroke:#9069E9;fill:#9069E9;}
*[layerid="99"] {stroke:#00CCCC;fill:#00CCCC;}
*[layerid="100"] {stroke:#CC9999;fill:#CC9999;}
*[layerid="101"] {stroke:#66FFCC;fill:#66FFCC;}
*[layerid="Hole"] {stroke:#222222;fill:#222222;}
*[layerid="DRCError"] {stroke:#FAD609;fill:#FAD609;}
*[fill="none"] {fill: none;}
*[stroke="none"] {stroke: none;}
path, polyline, polygon, line {stroke-linecap:round;}
g[c_partid="part_pad"][layerid="1"] ellipse:not([c_etype="pad_outer"]) {fill:#FF0000;}
g[c_partid="part_pad"][layerid="1"] polygon:not([c_etype="pad_outer"]) {fill:#FF0000;}
g[c_partid="part_pad"][layerid="1"] polyline:not([c_etype="pad_outer"]) {stroke:#FF0000;}
g[c_partid="part_pad"][layerid="2"] ellipse:not([c_etype="pad_outer"]) {fill:#0000FF;}
g[c_partid="part_pad"][layerid="2"] polygon:not([c_etype="pad_outer"]) {fill:#0000FF;}
g[c_partid="part_pad"][layerid="2"] polyline:not([c_etype="pad_outer"]) {stroke:#0000FF;}
g[c_partid="part_pad"][layerid="11"] ellipse:not([c_etype="pad_outer"]) {fill:#C0C0C0;}
g[c_partid="part_pad"][layerid="11"] polygon:not([c_etype="pad_outer"]) {fill:#C0C0C0;}
g[c_partid="part_pad"][layerid="11"] polyline:not([c_etype="pad_outer"]) {stroke:#C0C0C0;}
g[c_partid="part_pad"][layerid="11"] circle {fill:#222222;}
g[c_partid="part_pad"][layerid="11"] > polyline:nth-of-type(2) {stroke:#222222;}
g[c_partid="part_pad"][layerid="11"][c_shape="ELLIPSE"]  polyline:nth-last-of-type(1) {stroke:#222222;}
g[c_partid="part_pad"][layerid="11"][c_shape="RECT"]  polyline:nth-last-of-type(1) {stroke:#222222;}
g[c_partid="part_pad"][layerid="11"][c_shape="POLYGON"]  polyline:nth-last-of-type(1) {stroke:#222222;}
g[c_partid="part_via"] > * + circle, #gCurParts g[c_partid="part_via"] > * + circle {fill:#222222;}
g[c_partid="part_pad"] > polygon[c_etype="pad_outer"], #gCurParts g[c_partid="part_pad"] > polygon[c_etype="pad_outer"] {stroke-linejoin: miter;stroke-miterlimit: 100;}
g[c_partid="part_hole"] > circle {fill: #222222;}path, polyline, polygon {stroke-linejoin:round;}
rect, circle, ellipse, polyline, line, polygon, path {shape-rendering:crispEdges;}
</style>
<rect x="4030.7" y="3022" width="525.9" height="313.3" fill="#000000" stroke="none"/><g c_partid="part_hole" c_etype="pinpart" c_shapetype="group" c_origin="4426.496,3249.524" layerid="11" id="gge170392" locked="1" ><circle cx="4426.496" cy="3249.524" r="12.0079"  stroke-width="0" /></g><g c_partid="part_hole" c_etype="pinpart" c_shapetype="group" c_origin="4373.347,3249.524" layerid="11" id="gge170387" locked="1" ><circle cx="4373.347" cy="3249.524" r="12.0079"  stroke-width="0" /></g><g c_partid="part_hole" c_etype="pinpart" c_shapetype="group" c_origin="4320.197,3249.524" layerid="11" id="gge170382" locked="1" ><circle cx="4320.197" cy="3249.524" r="12.0079"  stroke-width="0" /></g><g c_partid="part_hole" c_etype="pinpart" c_shapetype="group" c_origin="4267.048,3249.524" layerid="11" id="gge170377" locked="1" ><circle cx="4267.048" cy="3249.524" r="12.0079"  stroke-width="0" /></g><g c_partid="part_hole" c_etype="pinpart" c_shapetype="group" c_origin="4213.898,3249.524" layerid="11" id="gge170372" locked="1" ><circle cx="4213.898" cy="3249.524" r="12.0079"  stroke-width="0" /></g><g c_partid="part_hole" c_etype="pinpart" c_shapetype="group" c_origin="4160.748,3249.524" layerid="11" id="gge170367" locked="1" ><circle cx="4160.748" cy="3249.524" r="12.0079"  stroke-width="0" /></g><g c_partid="part_hole" c_etype="pinpart" c_shapetype="group" c_origin="4107.599,3249.524" layerid="11" id="gge170362" locked="1" ><circle cx="4107.599" cy="3249.524" r="12.0079"  stroke-width="0" /></g><g c_partid="part_hole" c_etype="pinpart" c_shapetype="group" c_origin="4267.047,3070.391" layerid="11" id="gge170334" locked="1" ><circle cx="4267.047" cy="3070.391" r="12.0079"  stroke-width="0" /></g><g c_partid="part_hole" c_etype="pinpart" c_shapetype="group" c_origin="4479.645,3111.728" layerid="11" id="gge170329" locked="1" ><circle cx="4479.645" cy="3111.728" r="12.0079"  stroke-width="0" /></g><g c_partid="part_hole" c_etype="pinpart" c_shapetype="group" c_origin="4479.645,3070.39" layerid="11" id="gge170324" locked="1" ><circle cx="4479.645" cy="3070.39" r="12.0079"  stroke-width="0" /></g><g c_partid="part_hole" c_etype="pinpart" c_shapetype="group" c_origin="4267.048,3111.728" layerid="11" id="gge170319" locked="1" ><circle cx="4267.048" cy="3111.728" r="12.0079"  stroke-width="0" /></g><g c_partid="part_hole" c_etype="pinpart" c_shapetype="group" c_origin="4213.898,3111.728" layerid="11" id="gge170314" locked="1" ><circle cx="4213.898" cy="3111.728" r="12.0079"  stroke-width="0" /></g><g c_partid="part_hole" c_etype="pinpart" c_shapetype="group" c_origin="4160.748,3111.728" layerid="11" id="gge170309" locked="1" ><circle cx="4160.748" cy="3111.728" r="12.0079"  stroke-width="0" /></g><g c_partid="part_hole" c_etype="pinpart" c_shapetype="group" c_origin="4213.898,3070.391" layerid="11" id="gge170304" locked="1" ><circle cx="4213.898" cy="3070.391" r="12.0079"  stroke-width="0" /></g><g c_partid="part_hole" c_etype="pinpart" c_shapetype="group" c_origin="4160.748,3070.391" layerid="11" id="gge170299" locked="1" ><circle cx="4160.748" cy="3070.391" r="12.0079"  stroke-width="0" /></g><g c_partid="part_hole" c_etype="pinpart" c_shapetype="group" c_origin="4107.599,3288.895" layerid="11" id="gge170294" locked="1" ><circle cx="4107.599" cy="3288.895" r="12.0079"  stroke-width="0" /></g><g c_partid="part_hole" c_etype="pinpart" c_shapetype="group" c_origin="4160.748,3288.895" layerid="11" id="gge170289" locked="1" ><circle cx="4160.748" cy="3288.895" r="12.0079"  stroke-width="0" /></g><g c_partid="part_hole" c_etype="pinpart" c_shapetype="group" c_origin="4213.898,3288.895" layerid="11" id="gge170284" locked="1" ><circle cx="4213.898" cy="3288.895" r="12.0079"  stroke-width="0" /></g><g c_partid="part_hole" c_etype="pinpart" c_shapetype="group" c_origin="4267.048,3288.895" layerid="11" id="gge170279" locked="1" ><circle cx="4267.048" cy="3288.895" r="12.0079"  stroke-width="0" /></g><g c_partid="part_hole" c_etype="pinpart" c_shapetype="group" c_origin="4320.197,3288.895" layerid="11" id="gge170274" locked="1" ><circle cx="4320.197" cy="3288.895" r="12.0079"  stroke-width="0" /></g><g c_partid="part_hole" c_etype="pinpart" c_shapetype="group" c_origin="4373.347,3288.895" layerid="11" id="gge170269" locked="1" ><circle cx="4373.347" cy="3288.895" r="12.0079"  stroke-width="0" /></g><g c_partid="part_hole" c_etype="pinpart" c_shapetype="group" c_origin="4426.496,3288.895" layerid="11" id="gge170264" locked="1" ><circle cx="4426.496" cy="3288.895" r="12.0079"  stroke-width="0" /></g><g c_partid="part_hole" c_etype="pinpart" c_shapetype="group" c_origin="4479.646,3288.895" layerid="11" id="gge170259" locked="1" ><circle cx="4479.646" cy="3288.895" r="12.0079"  stroke-width="0" /></g><g c_partid="part_hole" c_etype="pinpart" c_shapetype="group" c_origin="4479.646,3249.524" layerid="11" id="gge170254" locked="1" ><circle cx="4479.646" cy="3249.524" r="12.0079"  stroke-width="0" /></g><g c_partid="part_hole" c_etype="pinpart" c_shapetype="group" c_origin="4479.646,3210.154" layerid="11" id="gge170249" locked="1" ><circle cx="4479.646" cy="3210.154" r="12.0079"  stroke-width="0" /></g><g c_partid="part_hole" c_etype="pinpart" c_shapetype="group" c_origin="4426.496,3210.154" layerid="11" id="gge170244" locked="1" ><circle cx="4426.496" cy="3210.154" r="12.0079"  stroke-width="0" /></g><g c_partid="part_hole" c_etype="pinpart" c_shapetype="group" c_origin="4373.347,3210.154" layerid="11" id="gge170239" locked="1" ><circle cx="4373.347" cy="3210.154" r="12.0079"  stroke-width="0" /></g><g c_partid="part_hole" c_etype="pinpart" c_shapetype="group" c_origin="4320.197,3210.154" layerid="11" id="gge170234" locked="1" ><circle cx="4320.197" cy="3210.154" r="12.0079"  stroke-width="0" /></g><g c_partid="part_hole" c_etype="pinpart" c_shapetype="group" c_origin="4267.048,3210.154" layerid="11" id="gge170229" locked="1" ><circle cx="4267.048" cy="3210.154" r="12.0079"  stroke-width="0" /></g><g c_partid="part_hole" c_etype="pinpart" c_shapetype="group" c_origin="4213.898,3210.154" layerid="11" id="gge170224" locked="1" ><circle cx="4213.898" cy="3210.154" r="12.0079"  stroke-width="0" /></g><g c_partid="part_hole" c_etype="pinpart" c_shapetype="group" c_origin="4160.748,3210.154" layerid="11" id="gge170219" locked="1" ><circle cx="4160.748" cy="3210.154" r="12.0079"  stroke-width="0" /></g><g c_partid="part_hole" c_etype="pinpart" c_shapetype="group" c_origin="4107.599,3210.154" layerid="11" id="gge170214" locked="1" ><circle cx="4107.599" cy="3210.154" r="12.0079"  stroke-width="0" /></g><g c_partid="part_hole" c_etype="pinpart" c_shapetype="group" c_origin="4479.646,3170.784" layerid="11" id="gge170205" locked="1" ><circle cx="4479.646" cy="3170.784" r="12.0079"  stroke-width="0" /></g><g c_partid="part_hole" c_etype="pinpart" c_shapetype="group" c_origin="4426.496,3170.784" layerid="11" id="gge170200" locked="1" ><circle cx="4426.496" cy="3170.784" r="12.0079"  stroke-width="0" /></g><g c_partid="part_hole" c_etype="pinpart" c_shapetype="group" c_origin="4373.347,3170.784" layerid="11" id="gge170195" locked="1" ><circle cx="4373.347" cy="3170.784" r="12.0079"  stroke-width="0" /></g><g c_partid="part_hole" c_etype="pinpart" c_shapetype="group" c_origin="4320.197,3170.784" layerid="11" id="gge170190" locked="1" ><circle cx="4320.197" cy="3170.784" r="12.0079"  stroke-width="0" /></g><g c_partid="part_hole" c_etype="pinpart" c_shapetype="group" c_origin="4267.048,3170.784" layerid="11" id="gge170185" locked="1" ><circle cx="4267.048" cy="3170.784" r="12.0079"  stroke-width="0" /></g><g c_partid="part_hole" c_etype="pinpart" c_shapetype="group" c_origin="4213.898,3170.784" layerid="11" id="gge170180" locked="1" ><circle cx="4213.898" cy="3170.784" r="12.0079"  stroke-width="0" /></g><g c_partid="part_hole" c_etype="pinpart" c_shapetype="group" c_origin="4160.748,3170.784" layerid="11" id="gge170175" locked="1" ><circle cx="4160.748" cy="3170.784" r="12.0079"  stroke-width="0" /></g><g c_partid="part_hole" c_etype="pinpart" c_shapetype="group" c_origin="4107.559,3170.784" layerid="11" id="gge170158" locked="1" ><circle cx="4107.559" cy="3170.784" r="12.0079"  stroke-width="0" /></g><g c_partid="part_hole" c_etype="pinpart" c_shapetype="group" c_origin="4079.0551,3092.0433" layerid="11" id="gge185758" locked="0" ><circle cx="4079.0551" cy="3092.0433" r="4"  stroke-width="0" /></g><polyline points="4127.28 3124.52 4126.3 3123.54 4126.3 3062.52 4151.88 3036.93 4214.88 3036.93 4214.88 3046.76 4220.79 3052.67 4283.78 3052.67 4291.65 3060.55 4291.65 3131.02 4287.32 3135.35 4138.11 3135.35 4126.3 3123.54" stroke-width="1"  stroke-linecap="round" fill="none" layerid="3" net="S$180866" id="gge185849" locked="0" /><polyline points="4307.4 3135.35 4307.4 3135.35 4362.52 3135.35 4362.52 3135.35 4362.52 3044.8 4354.67 3036.93 4354.65 3036.93 4303.46 3036.93 4299.53 3040.86 4299.53 3131.41 4303.46 3135.35 4307.4 3135.35" stroke-width="1"  stroke-linecap="round" fill="none" layerid="3" net="S$186050" id="gge186049" locked="0" /><polyline points="4374.33 3036.93 4368.03 3043.22 4368.03 3135.35 4368.03 3135.35 4441.26 3135.35 4441.26 3131.41 4449.13 3123.54 4449.13 3060.55 4449.13 3044.8 4430.21 3044.8 4430.21 3036.93 4374.33 3036.93" stroke-width="1"  stroke-linecap="round" fill="none" layerid="3" net="S$186174" id="gge186173" locked="0" /><polyline points="4391.26 3043.86 4395.59 3043.86" stroke-width="1"  stroke-linecap="round" fill="none" layerid="3" net="S$186171" id="gge186172" locked="0" /><polyline points="4395.5908 3040.0746 4395.5908 3047.1612" stroke-width="1"  stroke-linecap="round" fill="none" layerid="3" net="S$186171" id="gge186170" locked="0" /><polyline points="4391.26 3040.0746 4391.26 3047.1612" stroke-width="1"  stroke-linecap="round" fill="none" layerid="3" net="S$186169" id="gge186168" locked="0" /><polyline points="4421.4981 3038.9762 4426.2223 3038.9762" stroke-width="1"  stroke-linecap="round" fill="none" layerid="3" net="S$186141" id="gge186167" locked="0" /><polyline points="4423.8604 3046.8502 4423.8604 3038.9762" stroke-width="1"  stroke-linecap="round" fill="none" layerid="3" net="S$186139" id="gge186166" locked="0" /><polyline points="4417.5611 3038.9762 4420.317 3038.9762" stroke-width="1"  stroke-linecap="round" fill="none" layerid="3" net="S$186137" id="gge186165" locked="0" /><polyline points="4417.5611 3042.7494 4420.317 3042.7494" stroke-width="1"  stroke-linecap="round" fill="none" layerid="3" net="S$186135" id="gge186164" locked="0" /><polyline points="4417.5611 3038.9762 4417.5611 3046.8502 4420.7105 3046.8502" stroke-width="1"  stroke-linecap="round" fill="none" layerid="3" net="S$186133" id="gge186163" locked="0" /><polyline points="4410.0807 3046.8502 4410.0807 3039.37 4412.8365 3039.37 4412.8365 3046.8502 4414.8053 3046.8502 4414.8053 3038.9762" stroke-width="1"  stroke-linecap="round" fill="none" layerid="3" net="S$186131" id="gge186162" locked="0" /><polyline points="4405.9083 3042.702 4405.9083 3044.4884 4407.7183 3044.4884 4407.7183 3046.8502" stroke-width="1"  stroke-linecap="round" fill="none" layerid="3" net="S$186129" id="gge186161" locked="0" /><polyline points="4403.6944 3039.9462 4403.6959 3046.6378" stroke-width="1"  stroke-linecap="round" fill="none" layerid="3" net="S$186052" id="gge186160" locked="0" /><polyline points="4403.6944 3039.9462 4407.7183 3039.7638 4407.6314 3042.702" stroke-width="1"  stroke-linecap="round" fill="none" layerid="3" net="S$186056" id="gge186159" locked="0" /><polyline points="4403.6944 3042.702 4407.6314 3042.702" stroke-width="1"  stroke-linecap="round" fill="none" layerid="3" net="S$186054" id="gge186158" locked="0" /><polyline points="4397.1656 3040.0746 4397.1676 3046.7662 4401.0977 3046.7662" stroke-width="1"  stroke-linecap="round" fill="none" layerid="3" net="S$186052" id="gge186157" locked="0" /><polyline points="4397.1656 3040.0746 4401.1026 3040.0746" stroke-width="1"  stroke-linecap="round" fill="none" layerid="3" net="S$186056" id="gge186156" locked="0" /><polyline points="4397.1656 3042.8305 4401.1026 3042.8305" stroke-width="1"  stroke-linecap="round" fill="none" layerid="3" net="S$186054" id="gge186155" locked="0" /><polyline points="4384.1734 3040.4683 4389.2915 3040.4683" stroke-width="1"  stroke-linecap="round" fill="none" layerid="3" net="S$186060" id="gge186059" locked="0" /><polyline points="4386.9293 3047.1612 4386.9293 3040.4683" stroke-width="1"  stroke-linecap="round" fill="none" layerid="3" net="S$186058" id="gge186057" locked="0" /><polyline points="4378.2679 3040.4683 4378.27 3047.16 4382.2 3047.16" stroke-width="1"  stroke-linecap="round" fill="none" layerid="3" net="S$186052" id="gge186051" locked="0" /><polyline points="4378.2679 3040.4683 4382.2049 3040.4683" stroke-width="1"  stroke-linecap="round" fill="none" layerid="3" net="S$186056" id="gge186055" locked="0" /><polyline points="4378.2679 3043.2242 4382.2049 3043.2242" stroke-width="1"  stroke-linecap="round" fill="none" layerid="3" net="S$186054" id="gge186053" locked="0" /><polyline points="4457.01 3123.54 4457.01 3060.55 4454.06 3057.6 4454.06 3041.85 4458 3037.91 4488.51 3037.91 4512.13 3061.53 4512.13 3127.48 4504.26 3135.35 4468.82 3135.35 4457.01 3123.54" stroke-width="1"  stroke-linecap="round" fill="none" layerid="3" net="S$180894" id="gge185858" locked="0" /><polyline points="4342.83 3040.47 4348.3 3040.47 4348.3 3043.7" stroke-width="1"  stroke-linecap="round" fill="none" layerid="3" net="S$186047" id="gge186048" locked="0" /><polyline points="4342.8347 3040.8622 4342.83 3046.77 4349.92 3046.77 4349.9214 3044.0116 4342.8348 3044.0116 4342.83 3040.86" stroke-width="1"  stroke-linecap="round" fill="none" layerid="3" net="S$186047" id="gge186046" locked="0" /><polyline points="4331.02 3040.07 4327.09 3040.07 4327.09 3042.44 4331.02 3042.44 4331.02 3045.98 4327.09 3045.98 4327.09 3044.8" stroke-width="1"  stroke-linecap="round" fill="none" layerid="3" net="S$186045" id="gge186044" locked="0" /><polyline points="4307.4016 3040.8622 4307.4 3046.37 4315.28 3046.37 4315.2756 3040.8622" stroke-width="1"  stroke-linecap="round" fill="none" layerid="3" net="S$186043" id="gge186042" locked="0" /><polyline points="4500.3149 3107.7913 4500.3149 3109.7598" stroke-width="1"  stroke-linecap="round" fill="none" layerid="3" net="S$180803" id="gge185865" locked="0" /><polyline points="4500.3149 3107.7913 4504.252 3107.7913 4504.252 3115.6653 4500.3149 3115.6653 4500.3149 3123.5393 4508.189 3123.5393" stroke-width="1"  stroke-linecap="round" fill="none" layerid="3" net="S$180803" id="gge185864" locked="0" /><polyline points="4501.2993 3076.2954 4507.2046 3076.2954" stroke-width="1"  stroke-linecap="round" fill="none" layerid="3" net="S$180801" id="gge185863" locked="0" /><polyline points="4504.25 3076.3 4504.25 3060.55 4502.2798 3062.52" stroke-width="1"  stroke-linecap="round" fill="none" layerid="3" net="S$180799" id="gge185862" locked="0" /><polyline points="4484.5669 3040.8623 4476.6929 3040.8623 4476.6929 3052.6731 4488.5039 3052.6731" stroke-width="1"  stroke-linecap="round" fill="none" layerid="3" net="S$180797" id="gge185861" locked="0" /><polyline points="4460.9448 3040.8623 4460.9448 3052.6731" stroke-width="1"  stroke-linecap="round" fill="none" layerid="3" net="S$180793" id="gge185860" locked="0" /><polyline points="4464.8818 3040.8623 4472.7559 3040.8623 4472.7559 3048.7361 4464.8818 3048.7361 4464.8818 3052.6731 4472.7559 3052.6731" stroke-width="1"  stroke-linecap="round" fill="none" layerid="3" net="S$180795" id="gge185859" locked="0" /><polyline points="4142.0469 3107.7913 4142.0469 3115.6653" stroke-width="1"  stroke-linecap="round" fill="none" layerid="3" net="S$180785" id="gge185848" locked="0" /><polyline points="4169.6064 3043.7002 4173.5435 3043.7002 4173.5435 3052.6731" stroke-width="1"  stroke-linecap="round" fill="none" layerid="3" net="S$180772" id="gge185847" locked="0" /><polyline points="4161.7324 3051.689 4161.73 3039.821 4169.6104 3039.821 4169.6104 3046.7109" stroke-width="1"  stroke-linecap="round" fill="none" layerid="3" net="S$180772" id="gge185846" locked="0" /><polyline points="4181.4175 3039.8779 4181.4175 3052.6731" stroke-width="1"  stroke-linecap="round" fill="none" layerid="3" net="S$180772" id="gge185845" locked="0" /><polyline points="4189.2915 3039.8779 4189.2915 3052.6731 4197.1655 3052.6731 4197.1655 3051.689 4198.1494 3051.689 4198.1494 3041.8464 4197.1655 3041.8464 4197.1655 3039.8779 4189.2915 3039.8779" stroke-width="1"  stroke-linecap="round" fill="none" layerid="3" net="S$180772" id="gge185844" locked="0" /><polyline points="4205.0396 3039.8779 4205.0396 3052.6731" stroke-width="1"  stroke-linecap="round" fill="none" layerid="3" net="S$180772" id="gge185843" locked="0" /><polyline points="4140.0786 3107.7913 4144.0156 3107.7913" stroke-width="1"  stroke-linecap="round" fill="none" layerid="3" net="S$180785" id="gge185842" locked="0" /><polyline points="4135.1577 3107.7913 4135.1465 3115.6658 4138.0991 3115.6658 4138.0991 3107.7917" stroke-width="1"  stroke-linecap="round" fill="none" layerid="3" net="S$180783" id="gge185841" locked="0" /><polyline points="4129.252 3107.7913 4129.252 3115.6653 4133.189 3115.6653 4133.189 3107.7913 4129.252 3107.7913" stroke-width="1"  stroke-linecap="round" fill="none" layerid="3" net="S$180781" id="gge185840" locked="0" /><polyline points="4137.126 3072.3584 4140.0786 3072.3584 4140.0786 3064.4841" stroke-width="1"  stroke-linecap="round" fill="none" layerid="3" net="S$180790" id="gge185839" locked="0" /><polyline points="4134.1733 3072.3584 4134.1733 3064.4841 4137.126 3064.4841 4137.126 3072.3584" stroke-width="1"  stroke-linecap="round" fill="none" layerid="3" net="S$180790" id="gge185838" locked="0" /><polyline points="4131.2207 3064.4841 4131.2207 3072.3584" stroke-width="1"  stroke-linecap="round" fill="none" layerid="3" net="S$180788" id="gge185837" locked="0" /><polyline points="4075.1201 3206.22 4063.3101 3206.22 4063.3101 3174.72 4086.9299 3151.1001 4496.3799 3151.1001 4508.1899 3162.9099 4508.1899 3227.8701 4084.96 3227.8701 4075.1201 3218.03 4075.1201 3206.22" stroke-width="1"  stroke-linecap="round" fill="none" layerid="3" net="S$180868" id="gge185823" locked="0" /><polyline points="4081.0237 3273.1458 4081.0237 3265.2717" stroke-width="1"  stroke-linecap="round" fill="none" layerid="3" net="S$180826" id="gge185822" locked="0" /><polyline points="4085.9448 3210.1536 4082.9922 3210.1536" stroke-width="1"  stroke-linecap="round" fill="none" layerid="3" net="S$180818" id="gge185821" locked="0" /><polyline points="4079.0552 3206.2166 4079.0552 3215.0747 4085.9448 3215.0747 4085.9448 3210.1536" stroke-width="1"  stroke-linecap="round" fill="none" layerid="3" net="S$180818" id="gge185820" locked="0" /><polyline points="4075.1201 3296.77 4075.1201 3281.02 4059.3701 3281.02 4059.3701 3253.46 4084.96 3227.8701 4508.1899 3227.8701 4508.1899 3292.8301 4496.3799 3304.6399 4082.99 3304.6399 4075.1201 3296.77" stroke-width="1"  stroke-linecap="round" fill="none" layerid="3" net="S$180868" id="gge185819" locked="0" /><polyline points="4071.1812 3194.4055 4071.1812 3186.5315 4075.1182 3186.5315 4075.1182 3194.4055 4079.0552 3194.4055 4079.0552 3186.5315" stroke-width="1"  stroke-linecap="round" fill="none" layerid="3" net="S$180816" id="gge185818" locked="0" /><polyline points="4082.9922 3245.5867 4079.0552 3245.5867 4079.0552 3253.4607 4082.9922 3253.4607" stroke-width="1"  stroke-linecap="round" fill="none" layerid="3" net="S$180806" id="gge185817" locked="0" /><polyline points="4086.9292 3253.4607 4085.9448 3251.4922 4084.9607 3245.5867" stroke-width="1"  stroke-linecap="round" fill="none" layerid="3" net="S$180810" id="gge185816" locked="0" /><polyline points="4086.9292 3253.4607 4088.8977 3250.5078 4089.8818 3245.5867" stroke-width="1"  stroke-linecap="round" fill="none" layerid="3" net="S$180810" id="gge185815" locked="0" /><polyline points="4086.437 3174.7207 4088.4055 3171.7678 4089.3899 3166.8464" stroke-width="1"  stroke-linecap="round" fill="none" layerid="3" net="S$180810" id="gge185814" locked="0" /><polyline points="4086.437 3174.7207 4085.4529 3172.7522 4084.4685 3166.8464" stroke-width="1"  stroke-linecap="round" fill="none" layerid="3" net="S$180810" id="gge185813" locked="0" /><polyline points="4079.0552 3283.9724 4082.9922 3283.9724" stroke-width="1"  stroke-linecap="round" fill="none" layerid="3" net="S$180818" id="gge185812" locked="0" /><polyline points="4085.9448 3287.9094 4082.9922 3287.9094" stroke-width="1"  stroke-linecap="round" fill="none" layerid="3" net="S$180818" id="gge185811" locked="0" /><polyline points="4079.0552 3283.9724 4079.0552 3292.8308 4085.9448 3292.8308 4085.9448 3287.9094" stroke-width="1"  stroke-linecap="round" fill="none" layerid="3" net="S$180818" id="gge185810" locked="0" /><polyline points="4083.9763 3265.2717 4078.0708 3265.2717" stroke-width="1"  stroke-linecap="round" fill="none" layerid="3" net="S$180824" id="gge185809" locked="0" /><polyline points="4072.1653 3265.2717 4072.1653 3273.1458 4076.1023 3273.1458 4076.1023 3269.2087 4076.1023 3265.2717" stroke-width="1"  stroke-linecap="round" fill="none" layerid="3" net="S$180824" id="gge185808" locked="0" /><polyline points="4065.2754 3265.2717 4065.2754 3273.1458 4069.2124 3273.1458 4069.2124 3265.2717 4065.2754 3265.2717" stroke-width="1"  stroke-linecap="round" fill="none" layerid="3" net="S$180822" id="gge185807" locked="0" /><polyline points="4079.0552 3206.2166 4082.9922 3206.2166" stroke-width="1"  stroke-linecap="round" fill="none" layerid="3" net="S$180818" id="gge185806" locked="0" /><polyline points="4067.2441 3186.5315 4067.2441 3194.4055" stroke-width="1"  stroke-linecap="round" fill="none" layerid="3" net="S$180814" id="gge185805" locked="0" /><polyline points="4082.5 3166.8464 4078.563 3166.8464 4078.563 3174.7207 4082.5 3174.7207" stroke-width="1"  stroke-linecap="round" fill="none" layerid="3" net="S$180806" id="gge185804" locked="0" /><polyline points="4476.6899 3308.5801 4476.6899 3320.3899 4484.5698 3320.3899 4484.5698 3308.5801 4476.6899 3308.5801" stroke-width="1"  stroke-linecap="round" fill="none" layerid="3" net="S$180757" id="gge185803" locked="0" /><polyline points="4476.6899 3313.9983 4483.5825 3313.9983" stroke-width="1"  stroke-linecap="round" fill="none" layerid="3" net="S$180757" id="gge185802" locked="0" /><polyline points="4421.5747 3308.5786 4429.4487 3308.5786 4429.4487 3312.5159 4425.5117 3316.4529 4425.5117 3320.3899" stroke-width="1"  stroke-linecap="round" fill="none" layerid="3" net="S$180755" id="gge185801" locked="0" /><polyline points="4370.3936 3314.4841 4378.2676 3314.4841 4378.2676 3320.3899 4370.3936 3320.3899 4370.3936 3308.5786" stroke-width="1"  stroke-linecap="round" fill="none" layerid="3" net="S$180753" id="gge185800" locked="0" /><polyline points="4321.1812 3309.563 4315.2754 3309.563 4315.2754 3314.4841 4323.1494 3314.4841 4323.1494 3320.3899 4315.7007 3320.3899 4315.7007 3318.4214" stroke-width="1"  stroke-linecap="round" fill="none" layerid="3" net="S$180750" id="gge185799" locked="0" /><polyline points="4269.0156 3309.563 4269.0156 3320.3899" stroke-width="1"  stroke-linecap="round" fill="none" layerid="3" net="S$180748" id="gge185798" locked="0" /><polyline points="4265.0786 3308.5786 4265.0786 3312.5156 4271.9683 3312.5156" stroke-width="1"  stroke-linecap="round" fill="none" layerid="3" net="S$180746" id="gge185797" locked="0" /><polyline points="4209.96 3314.48 4213.8999 3314.48" stroke-width="1"  stroke-linecap="round" fill="none" layerid="3" net="S$180743" id="gge185796" locked="0" /><polyline points="4208.9766 3308.5786 4213.8975 3308.5786 4213.8975 3320.3899 4208.9766 3320.3899" stroke-width="1"  stroke-linecap="round" fill="none" layerid="3" net="S$180743" id="gge185795" locked="0" /><polyline points="4153.8584 3312.5156 4153.8584 3308.5786 4161.7324 3308.5786 4161.7324 3316.4529 4153.8584 3316.4529 4153.8584 3320.3899 4161.7324 3320.3899" stroke-width="1"  stroke-linecap="round" fill="none" layerid="3" net="S$180738" id="gge185794" locked="0" /><polyline points="4104.6455 3320.3899 4107.5986 3320.3899" stroke-width="1"  stroke-linecap="round" fill="none" layerid="3" net="S$180736" id="gge185793" locked="0" /><polyline points="4106.6143 3320.3899 4106.6143 3308.5786 4104.6455 3310.5471" stroke-width="1"  stroke-linecap="round" fill="none" layerid="3" net="S$180734" id="gge185792" locked="0" /><g c_partid="part_pcbtext" c_etype="" c_origin="4079.055,3051.043" c_rotation="0" c_mirror="0" id="gge185739" locked="0" layerid="3" c_shapetype="group" display="none"><path c_fontsize="4.5" c_fontfamily="" c_text="MOON3SILK2" d="M 4079.0551 3046.5033 L 4079.0551 3050.7933 M 4079.0551 3046.5033 L 4080.6951 3050.7933 M 4082.3251 3046.5033 L 4080.6951 3050.7933 M 4082.3251 3046.5033 L 4082.3251 3050.7933 M 4084.9051 3046.5033 L 4084.4951 3046.7033 L 4084.0851 3047.1133 L 4083.8851 3047.5233 L 4083.6751 3048.1433 L 4083.6751 3049.1633 L 4083.8851 3049.7733 L 4084.0851 3050.1833 L 4084.4951 3050.5933 L 4084.9051 3050.7933 L 4085.7251 3050.7933 L 4086.1351 3050.5933 L 4086.5451 3050.1833 L 4086.7451 3049.7733 L 4086.9551 3049.1633 L 4086.9551 3048.1433 L 4086.7451 3047.5233 L 4086.5451 3047.1133 L 4086.1351 3046.7033 L 4085.7251 3046.5033 L 4084.9051 3046.5033 M 4089.5251 3046.5033 L 4089.1151 3046.7033 L 4088.7051 3047.1133 L 4088.5051 3047.5233 L 4088.3051 3048.1433 L 4088.3051 3049.1633 L 4088.5051 3049.7733 L 4088.7051 3050.1833 L 4089.1151 3050.5933 L 4089.5251 3050.7933 L 4090.3451 3050.7933 L 4090.7551 3050.5933 L 4091.1651 3050.1833 L 4091.3651 3049.7733 L 4091.5751 3049.1633 L 4091.5751 3048.1433 L 4091.3651 3047.5233 L 4091.1651 3047.1133 L 4090.7551 3046.7033 L 4090.3451 3046.5033 L 4089.5251 3046.5033 M 4092.9251 3046.5033 L 4092.9251 3050.7933 M 4092.9251 3046.5033 L 4095.7851 3050.7933 M 4095.7851 3046.5033 L 4095.7851 3050.7933 M 4097.5451 3046.5033 L 4099.7951 3046.5033 L 4098.5651 3048.1433 L 4099.1851 3048.1433 L 4099.5951 3048.3433 L 4099.7951 3048.5433 L 4100.0051 3049.1633 L 4100.0051 3049.5733 L 4099.7951 3050.1833 L 4099.3851 3050.5933 L 4098.7751 3050.7933 L 4098.1551 3050.7933 L 4097.5451 3050.5933 L 4097.3451 3050.3933 L 4097.1351 3049.9833 M 4104.2151 3047.1133 L 4103.8051 3046.7033 L 4103.1951 3046.5033 L 4102.3751 3046.5033 L 4101.7551 3046.7033 L 4101.3551 3047.1133 L 4101.3551 3047.5233 L 4101.5551 3047.9333 L 4101.7551 3048.1433 L 4102.1651 3048.3433 L 4103.3951 3048.7533 L 4103.8051 3048.9533 L 4104.0051 3049.1633 L 4104.2151 3049.5733 L 4104.2151 3050.1833 L 4103.8051 3050.5933 L 4103.1951 3050.7933 L 4102.3751 3050.7933 L 4101.7551 3050.5933 L 4101.3551 3050.1833 M 4105.5651 3046.5033 L 4105.5651 3050.7933 M 4106.9151 3046.5033 L 4106.9151 3050.7933 M 4106.9151 3050.7933 L 4109.3651 3050.7933 M 4110.7151 3046.5033 L 4110.7151 3050.7933 M 4113.5851 3046.5033 L 4110.7151 3049.3633 M 4111.7451 3048.3433 L 4113.5851 3050.7933 M 4115.1351 3047.5233 L 4115.1351 3047.3233 L 4115.3451 3046.9133 L 4115.5451 3046.7033 L 4115.9551 3046.5033 L 4116.7751 3046.5033 L 4117.1851 3046.7033 L 4117.3851 3046.9133 L 4117.5951 3047.3233 L 4117.5951 3047.7333 L 4117.3851 3048.1433 L 4116.9751 3048.7533 L 4114.9351 3050.7933 L 4117.7951 3050.7933" fill="none"  stroke-width="0.2" c_note="note_name" /></g><g c_partid="part_pcbtext" c_etype="" c_origin="4079.055,3058.043" c_rotation="0" c_mirror="0" id="gge185741" locked="0" layerid="3" c_shapetype="group" display="none"><path c_fontsize="4.5" c_fontfamily="" c_text="U2" d="M 4079.06 3053.502 L 4079.06 3056.572 L 4079.26 3057.182 L 4079.67 3057.592 L 4080.28 3057.802 L 4080.69 3057.802 L 4081.31 3057.592 L 4081.71 3057.182 L 4081.92 3056.572 L 4081.92 3053.502 M 4083.47 3054.522 L 4083.47 3054.322 L 4083.68 3053.912 L 4083.88 3053.702 L 4084.29 3053.502 L 4085.11 3053.502 L 4085.52 3053.702 L 4085.72 3053.912 L 4085.93 3054.322 L 4085.93 3054.732 L 4085.72 3055.142 L 4085.31 3055.752 L 4083.27 3057.802 L 4086.13 3057.802" fill="none"  stroke-width="0.2" c_note="note_pre" /></g><g c_partid="part_pcbtext" c_etype="" c_origin="4079.0551,3051.0433" c_rotation="0" c_mirror="" id="gge185944" locked="0" layerid="3" c_shapetype="group" display="none"><path c_fontsize="4.5" c_fontfamily="" c_text="MOON3SILK2" d="M 4079.0551 3046.5033 L 4079.0551 3050.7933 M 4079.0551 3046.5033 L 4080.6951 3050.7933 M 4082.3251 3046.5033 L 4080.6951 3050.7933 M 4082.3251 3046.5033 L 4082.3251 3050.7933 M 4084.9051 3046.5033 L 4084.4951 3046.7033 L 4084.0851 3047.1133 L 4083.8851 3047.5233 L 4083.6751 3048.1433 L 4083.6751 3049.1633 L 4083.8851 3049.7733 L 4084.0851 3050.1833 L 4084.4951 3050.5933 L 4084.9051 3050.7933 L 4085.7251 3050.7933 L 4086.1351 3050.5933 L 4086.5451 3050.1833 L 4086.7451 3049.7733 L 4086.9551 3049.1633 L 4086.9551 3048.1433 L 4086.7451 3047.5233 L 4086.5451 3047.1133 L 4086.1351 3046.7033 L 4085.7251 3046.5033 L 4084.9051 3046.5033 M 4089.5251 3046.5033 L 4089.1151 3046.7033 L 4088.7051 3047.1133 L 4088.5051 3047.5233 L 4088.3051 3048.1433 L 4088.3051 3049.1633 L 4088.5051 3049.7733 L 4088.7051 3050.1833 L 4089.1151 3050.5933 L 4089.5251 3050.7933 L 4090.3451 3050.7933 L 4090.7551 3050.5933 L 4091.1651 3050.1833 L 4091.3651 3049.7733 L 4091.5751 3049.1633 L 4091.5751 3048.1433 L 4091.3651 3047.5233 L 4091.1651 3047.1133 L 4090.7551 3046.7033 L 4090.3451 3046.5033 L 4089.5251 3046.5033 M 4092.9251 3046.5033 L 4092.9251 3050.7933 M 4092.9251 3046.5033 L 4095.7851 3050.7933 M 4095.7851 3046.5033 L 4095.7851 3050.7933 M 4097.5451 3046.5033 L 4099.7951 3046.5033 L 4098.5651 3048.1433 L 4099.1851 3048.1433 L 4099.5951 3048.3433 L 4099.7951 3048.5433 L 4100.0051 3049.1633 L 4100.0051 3049.5733 L 4099.7951 3050.1833 L 4099.3851 3050.5933 L 4098.7751 3050.7933 L 4098.1551 3050.7933 L 4097.5451 3050.5933 L 4097.3451 3050.3933 L 4097.1351 3049.9833 M 4104.2151 3047.1133 L 4103.8051 3046.7033 L 4103.1951 3046.5033 L 4102.3751 3046.5033 L 4101.7551 3046.7033 L 4101.3551 3047.1133 L 4101.3551 3047.5233 L 4101.5551 3047.9333 L 4101.7551 3048.1433 L 4102.1651 3048.3433 L 4103.3951 3048.7533 L 4103.8051 3048.9533 L 4104.0051 3049.1633 L 4104.2151 3049.5733 L 4104.2151 3050.1833 L 4103.8051 3050.5933 L 4103.1951 3050.7933 L 4102.3751 3050.7933 L 4101.7551 3050.5933 L 4101.3551 3050.1833 M 4105.5651 3046.5033 L 4105.5651 3050.7933 M 4106.9151 3046.5033 L 4106.9151 3050.7933 M 4106.9151 3050.7933 L 4109.3651 3050.7933 M 4110.7151 3046.5033 L 4110.7151 3050.7933 M 4113.5851 3046.5033 L 4110.7151 3049.3633 M 4111.7451 3048.3433 L 4113.5851 3050.7933 M 4115.1351 3047.5233 L 4115.1351 3047.3233 L 4115.3451 3046.9133 L 4115.5451 3046.7033 L 4115.9551 3046.5033 L 4116.7751 3046.5033 L 4117.1851 3046.7033 L 4117.3851 3046.9133 L 4117.5951 3047.3233 L 4117.5951 3047.7333 L 4117.3851 3048.1433 L 4116.9751 3048.7533 L 4114.9351 3050.7933 L 4117.7951 3050.7933" fill="none"  stroke-width="0.6" c_note="note_name" /></g><g c_partid="part_pcbtext" c_etype="" c_origin="4079.0551,3058.0433" c_rotation="0" c_mirror="" id="gge185946" locked="0" layerid="3" c_shapetype="group" display="none"><path c_fontsize="4.5" c_fontfamily="" c_text="U1" d="M 4079.06 3053.5L4079.06 3056.57 L4079.26 3057.18 L4079.67 3057.59 L4080.28 3057.8 L4080.69 3057.8 L4081.31 3057.59 L4081.71 3057.18 L4081.92 3056.57 L4081.92 3053.5 M 4083.27 3054.32L4083.68 3054.12 L4084.29 3053.5 L4084.29 3057.8 " fill="none"  stroke-width="0.6" c_note="note_pre" /></g><path d="M 4086.9291 3060.5472 A 27.8389 27.8389 0 1 0 4110.5512 3084.1693" locked="0"  fill="none" stroke-width="0.2" c_helper_type="arc2" net="S$196" layerid="3" id="gge185743" /><path d="M 4086.9291 3060.5472 A 32.4654 32.4654 0 1 0 4110.5512 3084.1693" locked="0"  fill="none" stroke-width="0.2" c_helper_type="arc2" net="S$196" layerid="3" id="gge185744" /><path d="M 4086.9291 3060.5472 A 27.8389 27.8389 0 1 0 4110.5512 3084.1693" locked="0"  fill="none" stroke-width="1" c_helper_type="arc2" net="S$196" layerid="3" id="gge185948" /><path d="M 4086.9291 3060.5472 A 32.4654 32.4654 0 1 0 4110.5512 3084.1693" locked="0"  fill="none" stroke-width="1" c_helper_type="arc2" net="S$196" layerid="3" id="gge185949" /><polyline points="4305.04 3106.61 4306 3106.61 4357.01 3106.61 4357.01 3129.05 4305.04 3129.05 4305.04 3107.5 4305.04 3106.61" stroke-width="1.1811"  stroke-linecap="round" fill="none" layerid="10" net="S$170355" id="gge170354" locked="0" /><polyline points="4040.6692 3032.0039 4040.6692 3325.311" stroke-width="1.1811"  stroke-linecap="round" fill="none" layerid="10" net="S$18037" id="gge170337" locked="1" /><polyline points="4040.6693 3325.311 4546.5747 3325.311" stroke-width="1.1811"  stroke-linecap="round" fill="none" layerid="10" net="S$26525" id="gge169962" locked="1" /><polyline points="4040.6692 3032.0039 4546.5747 3032.0039" stroke-width="1.1811"  stroke-linecap="round" fill="none" layerid="10" net="S$26525" id="gge170396" locked="1" /><polyline points="4306.22 3050.7 4306.22 3049.52 4306.22 3049.52 4356.22 3049.52 4356.22 3097.55 4306.22 3097.55 4306.22 3050.5" stroke-width="1.1811"  stroke-linecap="round" fill="none" layerid="10" net="S$170353" id="gge170352" locked="0" /><polyline points="4374 3050.5 4374 3122.36 4440.87 3122.36 4440.87 3049.52 4374 3049.52 4374 3050.5" stroke-width="1.1811"  stroke-linecap="round" fill="none" layerid="10" net="S$170351" id="gge170350" locked="0" /><polyline points="4546.5747 3032.0039 4546.5747 3325.3109" stroke-width="1.1811"  stroke-linecap="round" fill="none" layerid="10" net="S$18037" id="gge170340" locked="1" /></svg>